<svg width="148" height="148" viewBox="0 0 148 148" fill="none" xmlns="http://www.w3.org/2000/svg">
<path d="M73.973 39.3095C75.569 39.3095 76.862 38.018 76.862 36.424V32.0197C76.862 30.4258 75.569 29.1343 73.973 29.1343C72.377 29.1343 71.083 30.4258 71.083 32.0197V36.424C71.083 38.018 72.377 39.3095 73.973 39.3095Z" fill="#5F2EEA"/>
<path d="M105.74 42.2749C104.611 41.1485 102.782 41.1485 101.654 42.2749L98.535 45.3892C97.407 46.5165 97.407 48.3431 98.535 49.47C99.665 50.5968 101.493 50.5964 102.622 49.47L105.74 46.3556C106.868 45.2288 106.868 43.4021 105.74 42.2749Z" fill="#5F2EEA"/>
<path d="M111.599 71.1145C110.003 71.1145 108.71 72.406 108.71 74C108.71 75.5939 110.003 76.8854 111.599 76.8854H116.009C117.605 76.8854 118.899 75.5939 118.899 74C118.899 72.406 117.605 71.1145 116.009 71.1145H111.599Z" fill="#5F2EEA"/>
<path d="M102.622 98.5297C101.493 97.4032 99.664 97.4032 98.535 98.5297C97.407 99.6569 97.407 101.484 98.535 102.61L101.654 105.725C102.783 106.852 104.612 106.852 105.74 105.725C106.869 104.598 106.869 102.771 105.74 101.644L102.622 98.5297Z" fill="#5F2EEA"/>
<path d="M71.083 111.576V115.98C71.083 117.574 72.377 118.865 73.973 118.865C75.569 118.865 76.862 117.574 76.862 115.98V111.576C76.862 109.982 75.569 108.691 73.973 108.691C72.377 108.691 71.083 109.982 71.083 111.576Z" fill="#5F2EEA"/>
<path d="M45.3232 98.5297L42.2047 101.644C41.0763 102.771 41.0763 104.598 42.2047 105.725C43.3334 106.852 45.1626 106.852 46.2906 105.725L49.4091 102.61C50.537 101.483 50.537 99.6565 49.4091 98.5297C48.2811 97.4032 46.4516 97.4032 45.3232 98.5297Z" fill="#5F2EEA"/>
<path d="M31.9357 71.1145C30.34 71.1145 29.0464 72.406 29.0464 74C29.0464 75.5939 30.34 76.8854 31.9357 76.8854H36.346C37.9417 76.8854 39.2353 75.5939 39.2353 74C39.2353 72.406 37.9417 71.1145 36.346 71.1145H31.9357Z" fill="#5F2EEA"/>
<path d="M49.4095 45.3892L46.2909 42.2749C45.1626 41.1485 43.333 41.1485 42.205 42.2749C41.0767 43.4021 41.0767 45.2288 42.205 46.3556L45.3236 49.47C46.4524 50.5968 48.2815 50.5964 49.4095 49.47C50.538 48.3431 50.538 46.5165 49.4095 45.3892Z" fill="#5F2EEA"/>
<path d="M89.51 74.0001C89.51 72.4062 88.216 71.1146 86.62 71.1146H76.862V49.6917C76.862 48.0978 75.569 46.8063 73.973 46.8063C72.377 46.8063 71.083 48.0978 71.083 49.6917V74.0001C71.083 75.594 72.377 76.8855 73.973 76.8855H86.62C88.216 76.8855 89.51 75.594 89.51 74.0001Z" fill="#5F2EEA"/>
<path d="M128.759 73.5236C130.352 73.427 131.565 72.0594 131.468 70.469C129.63 40.1901 104.375 16.4714 73.972 16.4714C42.2082 16.4714 16.3661 42.2787 16.3661 74.0003C16.3661 105.722 42.2082 131.528 73.972 131.528C102.43 131.528 126.712 110.707 130.936 82.6085C131.173 81.0326 130.086 79.5634 128.508 79.3268C126.934 79.091 125.459 80.1755 125.222 81.7521C121.427 106.995 99.601 125.758 73.972 125.758C45.3946 125.758 22.1447 102.54 22.1447 74.0007C22.1447 45.4615 45.3946 22.2427 73.972 22.2427C101.325 22.2427 124.046 43.5798 125.7 70.8191C125.796 72.4087 127.164 73.616 128.759 73.5236Z" fill="#5F2EEA"/>
<mask id="mask0" mask-type="alpha" maskUnits="userSpaceOnUse" x="0" y="0" width="148" height="148">
<circle cx="74" cy="74" r="71" stroke="black" stroke-width="6"/>
</mask>
<g mask="url(#mask0)">
<path d="M73.972 -0.0480957C63.809 -0.0480957 53.852 2.05749 44.6868 5.99515H-6.2921C-7.8877 5.99515 -9.1814 7.28666 -9.1814 8.88057C-9.1814 10.4745 -7.8877 11.766 -6.2921 11.766H33.8168C28.3937 15.2516 23.4013 19.4558 18.9995 24.3095C17.9286 25.4903 18.0187 27.3149 19.2014 28.3849C20.3845 29.4548 22.2109 29.3644 23.2827 28.1833C36.2276 13.9093 54.704 5.72276 73.972 5.72276C111.671 5.72276 142.342 36.3518 142.342 74C142.342 111.648 111.672 142.277 73.972 142.277C36.2731 142.277 5.6027 111.648 5.6027 74C5.6027 60.8163 9.3738 48.0205 16.5078 36.995C17.3738 35.6566 16.9893 33.8707 15.6491 33.0058C14.3088 32.1413 12.5205 32.5245 11.6541 33.8634C3.9146 45.8237 -0.175896 59.7026 -0.175896 74C-0.175896 100.071 13.3869 123.036 33.8353 136.235H-6.29169C-7.88739 136.235 -9.181 137.526 -9.181 139.12C-9.181 140.713 -7.88739 142.004 -6.29169 142.004H44.6471C53.646 145.891 63.561 148.048 73.973 148.048C114.858 148.048 148.121 114.83 148.121 74C148.121 33.1697 114.858 -0.0480957 73.972 -0.0480957Z" fill="#5F2EEA"/>
</g>
</svg>
