<svg width="236" height="83" viewBox="0 0 236 83" fill="none" xmlns="http://www.w3.org/2000/svg">
<rect y="62" width="236" height="21" fill="#5F2EEA"/>
<path d="M6.92443 66.576C8.41777 66.576 9.50577 66.8693 10.1884 67.456C10.8711 68.0427 11.2124 68.8693 11.2124 69.936C11.2124 70.5653 11.0684 71.1573 10.7804 71.712C10.5031 72.256 10.0284 72.6987 9.35643 73.04C8.6951 73.3813 7.79377 73.552 6.65243 73.552H5.34043V78H3.90043V66.576H6.92443ZM6.79643 67.808H5.34043V72.32H6.49243C7.58043 72.32 8.3911 72.144 8.92443 71.792C9.45777 71.44 9.72443 70.8427 9.72443 70C9.72443 69.264 9.48977 68.7147 9.02043 68.352C8.5511 67.9893 7.80977 67.808 6.79643 67.808ZM18.3079 69.264C19.0439 69.264 19.6733 69.424 20.1959 69.744C20.7293 70.064 21.1346 70.5173 21.4119 71.104C21.6999 71.68 21.8439 72.3573 21.8439 73.136V73.984H15.9719C15.9933 74.9547 16.2386 75.696 16.7079 76.208C17.1879 76.7093 17.8546 76.96 18.7079 76.96C19.2519 76.96 19.7319 76.912 20.1479 76.816C20.5746 76.7093 21.0119 76.56 21.4599 76.368V77.6C21.0226 77.792 20.5906 77.9307 20.1639 78.016C19.7373 78.112 19.2306 78.16 18.6439 78.16C17.8333 78.16 17.1133 77.9947 16.4839 77.664C15.8653 77.3333 15.3799 76.8427 15.0279 76.192C14.6866 75.5307 14.5159 74.7253 14.5159 73.776C14.5159 72.8373 14.6706 72.032 14.9799 71.36C15.2999 70.688 15.7426 70.1707 16.3079 69.808C16.8839 69.4453 17.5506 69.264 18.3079 69.264ZM18.2919 70.416C17.6199 70.416 17.0866 70.6347 16.6919 71.072C16.3079 71.4987 16.0786 72.096 16.0039 72.864H20.3719C20.3613 72.1387 20.1906 71.552 19.8599 71.104C19.5293 70.6453 19.0066 70.416 18.2919 70.416ZM34.8272 69.424V78H33.5632V72.528C33.5632 72.304 33.5685 72.0693 33.5792 71.824C33.6005 71.5787 33.6219 71.3387 33.6432 71.104H33.5952L30.7952 78H29.6112L26.8912 71.104H26.8432C26.8752 71.584 26.8912 72.0747 26.8912 72.576V78H25.6272V69.424H27.4992L30.2032 76.32L32.9552 69.424H34.8272ZM46.6207 73.696C46.6207 75.1147 46.258 76.2133 45.5327 76.992C44.818 77.7707 43.8474 78.16 42.6207 78.16C41.8634 78.16 41.186 77.9893 40.5887 77.648C40.002 77.296 39.538 76.7893 39.1967 76.128C38.8554 75.456 38.6847 74.6453 38.6847 73.696C38.6847 72.2773 39.042 71.184 39.7567 70.416C40.4714 69.648 41.442 69.264 42.6687 69.264C43.4474 69.264 44.13 69.44 44.7167 69.792C45.314 70.1333 45.778 70.6347 46.1087 71.296C46.45 71.9467 46.6207 72.7467 46.6207 73.696ZM40.1407 73.696C40.1407 74.7093 40.338 75.5147 40.7327 76.112C41.138 76.6987 41.778 76.992 42.6527 76.992C43.5167 76.992 44.1514 76.6987 44.5567 76.112C44.962 75.5147 45.1647 74.7093 45.1647 73.696C45.1647 72.6827 44.962 71.888 44.5567 71.312C44.1514 70.736 43.5114 70.448 42.6367 70.448C41.762 70.448 41.1274 70.736 40.7327 71.312C40.338 71.888 40.1407 72.6827 40.1407 73.696ZM51.8602 69.424V72.992H56.5162V69.424H57.9242V78H56.5162V74.176H51.8602V78H50.4522V69.424H51.8602ZM68.1597 70.608H65.3597V78H63.9677V70.608H61.1997V69.424H68.1597V70.608ZM76.1167 72.848C76.1167 70.9707 76.3993 69.5093 76.9647 68.464C77.53 67.408 78.442 66.7467 79.7007 66.48C80.394 66.3307 81.0713 66.1973 81.7327 66.08C82.394 65.9627 83.0127 65.856 83.5887 65.76L83.8287 66.992C83.4553 67.0453 83.034 67.1147 82.5647 67.2C82.0953 67.2747 81.6313 67.3547 81.1727 67.44C80.714 67.5147 80.3193 67.5893 79.9887 67.664C79.2953 67.8133 78.746 68.176 78.3407 68.752C77.9353 69.3173 77.706 70.2027 77.6527 71.408H77.7487C77.898 71.2053 78.1007 70.9973 78.3567 70.784C78.6233 70.5707 78.938 70.3893 79.3007 70.24C79.674 70.0907 80.0953 70.016 80.5647 70.016C81.674 70.016 82.5113 70.3733 83.0767 71.088C83.642 71.8027 83.9247 72.7307 83.9247 73.872C83.9247 74.8213 83.7593 75.616 83.4287 76.256C83.098 76.896 82.6393 77.376 82.0527 77.696C81.466 78.0053 80.7833 78.16 80.0047 78.16C78.8207 78.16 77.8767 77.7067 77.1727 76.8C76.4687 75.8933 76.1167 74.576 76.1167 72.848ZM80.1167 76.992C80.81 76.992 81.37 76.768 81.7967 76.32C82.2233 75.872 82.4367 75.104 82.4367 74.016C82.4367 73.1413 82.2713 72.4533 81.9407 71.952C81.6207 71.44 81.0873 71.184 80.3407 71.184C79.8713 71.184 79.4447 71.2907 79.0607 71.504C78.6767 71.7067 78.3567 71.9413 78.1007 72.208C77.8447 72.4747 77.6633 72.6987 77.5567 72.88C77.5567 73.4027 77.594 73.9093 77.6687 74.4C77.7433 74.8907 77.8713 75.3333 78.0527 75.728C78.2447 76.112 78.506 76.4213 78.8367 76.656C79.178 76.88 79.6047 76.992 80.1167 76.992ZM87.7428 78V69.424H89.1508V72.944H91.3748C92.4841 72.944 93.3055 73.1467 93.8388 73.552C94.3721 73.9573 94.6388 74.5653 94.6388 75.376C94.6388 76.176 94.3775 76.816 93.8548 77.296C93.3321 77.7653 92.4841 78 91.3108 78H87.7428ZM96.0628 78V69.424H97.4708V78H96.0628ZM91.1828 76.864C91.7908 76.864 92.2868 76.7627 92.6708 76.56C93.0548 76.3467 93.2468 75.9787 93.2468 75.456C93.2468 74.9333 93.0708 74.5813 92.7188 74.4C92.3668 74.208 91.8601 74.112 91.1988 74.112H89.1508V76.864H91.1828ZM107.716 70.608H104.916V78H103.524V70.608H100.756V69.424H107.716V70.608ZM118.305 73.696C118.305 75.1147 117.942 76.2133 117.217 76.992C116.502 77.7707 115.532 78.16 114.305 78.16C113.548 78.16 112.87 77.9893 112.273 77.648C111.686 77.296 111.222 76.7893 110.881 76.128C110.54 75.456 110.369 74.6453 110.369 73.696C110.369 72.2773 110.726 71.184 111.441 70.416C112.156 69.648 113.126 69.264 114.353 69.264C115.132 69.264 115.814 69.44 116.401 69.792C116.998 70.1333 117.462 70.6347 117.793 71.296C118.134 71.9467 118.305 72.7467 118.305 73.696ZM111.825 73.696C111.825 74.7093 112.022 75.5147 112.417 76.112C112.822 76.6987 113.462 76.992 114.337 76.992C115.201 76.992 115.836 76.6987 116.241 76.112C116.646 75.5147 116.849 74.7093 116.849 73.696C116.849 72.6827 116.646 71.888 116.241 71.312C115.836 70.736 115.196 70.448 114.321 70.448C113.446 70.448 112.812 70.736 112.417 71.312C112.022 71.888 111.825 72.6827 111.825 73.696ZM129.033 71.584C129.033 72.1173 128.873 72.5333 128.553 72.832C128.233 73.1307 127.822 73.3333 127.321 73.44V73.504C127.854 73.5787 128.318 73.7707 128.713 74.08C129.107 74.3787 129.305 74.848 129.305 75.488C129.305 76.2133 129.033 76.816 128.489 77.296C127.955 77.7653 127.07 78 125.833 78H122.137V69.424H125.817C126.425 69.424 126.969 69.4933 127.449 69.632C127.939 69.76 128.323 69.984 128.601 70.304C128.889 70.6133 129.033 71.04 129.033 71.584ZM127.609 71.76C127.609 71.3547 127.459 71.0613 127.161 70.88C126.873 70.688 126.398 70.592 125.737 70.592H123.545V72.944H125.481C126.899 72.944 127.609 72.5493 127.609 71.76ZM127.849 75.488C127.849 74.9973 127.662 74.6453 127.289 74.432C126.915 74.2187 126.366 74.112 125.641 74.112H123.545V76.864H125.673C126.377 76.864 126.915 76.7627 127.289 76.56C127.662 76.3467 127.849 75.9893 127.849 75.488ZM140.411 73.696C140.411 75.1147 140.049 76.2133 139.323 76.992C138.609 77.7707 137.638 78.16 136.411 78.16C135.654 78.16 134.977 77.9893 134.379 77.648C133.793 77.296 133.329 76.7893 132.987 76.128C132.646 75.456 132.475 74.6453 132.475 73.696C132.475 72.2773 132.833 71.184 133.547 70.416C134.262 69.648 135.233 69.264 136.459 69.264C137.238 69.264 137.921 69.44 138.507 69.792C139.105 70.1333 139.569 70.6347 139.899 71.296C140.241 71.9467 140.411 72.7467 140.411 73.696ZM133.931 73.696C133.931 74.7093 134.129 75.5147 134.523 76.112C134.929 76.6987 135.569 76.992 136.443 76.992C137.307 76.992 137.942 76.6987 138.347 76.112C138.753 75.5147 138.955 74.7093 138.955 73.696C138.955 72.6827 138.753 71.888 138.347 71.312C137.942 70.736 137.302 70.448 136.427 70.448C135.553 70.448 134.918 70.736 134.523 71.312C134.129 71.888 133.931 72.6827 133.931 73.696ZM151.187 65.872C151.112 66.672 150.84 67.28 150.371 67.696C149.912 68.1013 149.176 68.304 148.163 68.304C147.117 68.304 146.376 68.1013 145.939 67.696C145.512 67.2907 145.272 66.6827 145.219 65.872H146.531C146.584 66.448 146.733 66.8373 146.979 67.04C147.235 67.232 147.64 67.328 148.195 67.328C148.685 67.328 149.069 67.2267 149.347 67.024C149.635 66.8107 149.805 66.4267 149.859 65.872H151.187ZM145.571 74.656C145.571 74.784 145.565 74.976 145.555 75.232C145.544 75.488 145.528 75.744 145.507 76C145.496 76.256 145.485 76.4587 145.475 76.608L150.067 69.424H151.795V78H150.483V72.944C150.483 72.7733 150.483 72.5493 150.483 72.272C150.493 71.9947 150.504 71.7227 150.515 71.456C150.525 71.1787 150.536 70.9707 150.547 70.832L145.987 78H144.243V69.424H145.571V74.656ZM167.16 70.608H164.36V78H162.968V70.608H160.2V69.424H167.16V70.608ZM173.605 69.264C174.341 69.264 174.97 69.424 175.493 69.744C176.026 70.064 176.431 70.5173 176.709 71.104C176.997 71.68 177.141 72.3573 177.141 73.136V73.984H171.269C171.29 74.9547 171.535 75.696 172.005 76.208C172.485 76.7093 173.151 76.96 174.005 76.96C174.549 76.96 175.029 76.912 175.445 76.816C175.871 76.7093 176.309 76.56 176.757 76.368V77.6C176.319 77.792 175.887 77.9307 175.461 78.016C175.034 78.112 174.527 78.16 173.941 78.16C173.13 78.16 172.41 77.9947 171.781 77.664C171.162 77.3333 170.677 76.8427 170.325 76.192C169.983 75.5307 169.813 74.7253 169.813 73.776C169.813 72.8373 169.967 72.032 170.277 71.36C170.597 70.688 171.039 70.1707 171.605 69.808C172.181 69.4453 172.847 69.264 173.605 69.264ZM173.589 70.416C172.917 70.416 172.383 70.6347 171.989 71.072C171.605 71.4987 171.375 72.096 171.301 72.864H175.669C175.658 72.1387 175.487 71.552 175.157 71.104C174.826 70.6453 174.303 70.416 173.589 70.416ZM182.956 73.616L179.996 69.424H181.596L183.804 72.656L185.996 69.424H187.58L184.62 73.616L187.74 78H186.14L183.804 74.576L181.436 78H179.852L182.956 73.616ZM192.401 69.424V72.992H197.057V69.424H198.465V78H197.057V74.176H192.401V78H190.993V69.424H192.401ZM204.108 74.656C204.108 74.784 204.103 74.976 204.092 75.232C204.082 75.488 204.066 75.744 204.044 76C204.034 76.256 204.023 76.4587 204.012 76.608L208.604 69.424H210.332V78H209.02V72.944C209.02 72.7733 209.02 72.5493 209.02 72.272C209.031 71.9947 209.042 71.7227 209.052 71.456C209.063 71.1787 209.074 70.9707 209.084 70.832L204.524 78H202.78V69.424H204.108V74.656ZM219.734 69.424H221.27L217.606 73.552L221.574 78H219.942L216.07 73.648V78H214.662V69.424H216.07V73.584L219.734 69.424ZM226.058 74.656C226.058 74.784 226.053 74.976 226.042 75.232C226.032 75.488 226.016 75.744 225.994 76C225.984 76.256 225.973 76.4587 225.962 76.608L230.554 69.424H232.282V78H230.97V72.944C230.97 72.7733 230.97 72.5493 230.97 72.272C230.981 71.9947 230.992 71.7227 231.002 71.456C231.013 71.1787 231.024 70.9707 231.034 70.832L226.474 78H224.73V69.424H226.058V74.656Z" fill="white"/>
<path d="M19.776 48L8.496 17.952H8.304C8.4 18.944 8.48 20.288 8.544 21.984C8.608 23.648 8.64 25.392 8.64 27.216V48H4.656V13.728H11.04L21.6 41.808H21.792L32.544 13.728H38.88V48H34.608V26.928C34.608 25.264 34.64 23.616 34.704 21.984C34.8 20.352 34.88 19.024 34.944 18H34.752L23.328 48H19.776ZM62.8909 17.04C59.2109 17.04 56.3149 18.272 54.2029 20.736C52.0909 23.2 51.0349 26.576 51.0349 30.864C51.0349 35.12 52.0109 38.496 53.9629 40.992C55.9469 43.456 58.9069 44.688 62.8429 44.688C64.3469 44.688 65.7709 44.56 67.1149 44.304C68.4589 44.048 69.7709 43.728 71.0509 43.344V47.088C69.7709 47.568 68.4429 47.92 67.0669 48.144C65.7229 48.368 64.1069 48.48 62.2189 48.48C58.7309 48.48 55.8189 47.76 53.4829 46.32C51.1469 44.88 49.3869 42.832 48.2029 40.176C47.0509 37.52 46.4749 34.4 46.4749 30.816C46.4749 27.36 47.0989 24.32 48.3469 21.696C49.6269 19.04 51.4989 16.976 53.9629 15.504C56.4269 14 59.4189 13.248 62.9389 13.248C66.5549 13.248 69.7069 13.92 72.3949 15.264L70.6669 18.912C69.6109 18.432 68.4269 18 67.1149 17.616C65.8349 17.232 64.4269 17.04 62.8909 17.04ZM88.275 48.48C86.003 48.48 83.971 48.016 82.179 47.088C80.419 46.16 79.027 44.72 78.003 42.768C77.011 40.816 76.515 38.32 76.515 35.28C76.515 32.112 77.043 29.536 78.099 27.552C79.155 25.568 80.579 24.112 82.371 23.184C84.195 22.256 86.259 21.792 88.563 21.792C89.875 21.792 91.139 21.936 92.355 22.224C93.571 22.48 94.563 22.8 95.331 23.184L94.035 26.688C93.267 26.4 92.371 26.128 91.347 25.872C90.323 25.616 89.363 25.488 88.467 25.488C83.411 25.488 80.883 28.736 80.883 35.232C80.883 38.336 81.491 40.72 82.707 42.384C83.955 44.016 85.795 44.832 88.227 44.832C89.635 44.832 90.867 44.688 91.923 44.4C93.011 44.112 94.003 43.76 94.899 43.344V47.088C94.035 47.536 93.075 47.872 92.019 48.096C90.995 48.352 89.747 48.48 88.275 48.48ZM110.954 21.792C113.162 21.792 115.05 22.272 116.618 23.232C118.218 24.192 119.434 25.552 120.266 27.312C121.13 29.04 121.562 31.072 121.562 33.408V35.952H103.946C104.01 38.864 104.746 41.088 106.154 42.624C107.594 44.128 109.594 44.88 112.154 44.88C113.786 44.88 115.226 44.736 116.474 44.448C117.754 44.128 119.066 43.68 120.41 43.104V46.8C119.098 47.376 117.802 47.792 116.522 48.048C115.242 48.336 113.722 48.48 111.962 48.48C109.53 48.48 107.37 47.984 105.482 46.992C103.626 46 102.17 44.528 101.114 42.576C100.09 40.592 99.5775 38.176 99.5775 35.328C99.5775 32.512 100.042 30.096 100.97 28.08C101.93 26.064 103.258 24.512 104.954 23.424C106.682 22.336 108.682 21.792 110.954 21.792ZM110.906 25.248C108.89 25.248 107.29 25.904 106.106 27.216C104.954 28.496 104.266 30.288 104.042 32.592H117.146C117.114 30.416 116.602 28.656 115.61 27.312C114.618 25.936 113.05 25.248 110.906 25.248ZM140.351 21.792C143.519 21.792 146.063 22.896 147.983 25.104C149.935 27.312 150.911 30.64 150.911 35.088C150.911 39.472 149.935 42.8 147.983 45.072C146.063 47.344 143.503 48.48 140.303 48.48C138.319 48.48 136.671 48.112 135.359 47.376C134.079 46.608 133.071 45.728 132.335 44.736H132.047C132.111 45.28 132.175 45.968 132.239 46.8C132.303 47.632 132.335 48.352 132.335 48.96V59.52H128.111V22.272H131.567L132.143 25.776H132.335C133.103 24.656 134.111 23.712 135.359 22.944C136.607 22.176 138.271 21.792 140.351 21.792ZM139.583 25.344C136.959 25.344 135.103 26.08 134.015 27.552C132.959 29.024 132.399 31.264 132.335 34.272V35.088C132.335 38.256 132.847 40.704 133.871 42.432C134.927 44.128 136.863 44.976 139.679 44.976C141.247 44.976 142.527 44.544 143.519 43.68C144.543 42.816 145.295 41.648 145.775 40.176C146.287 38.672 146.543 36.96 146.543 35.04C146.543 32.096 145.967 29.744 144.815 27.984C143.695 26.224 141.951 25.344 139.583 25.344ZM178.331 28.752C178.331 30.352 177.851 31.6 176.891 32.496C175.931 33.392 174.699 34 173.195 34.32V34.512C174.795 34.736 176.187 35.312 177.371 36.24C178.555 37.136 179.147 38.544 179.147 40.464C179.147 42.64 178.331 44.448 176.699 45.888C175.099 47.296 172.443 48 168.731 48H157.643V22.272H168.683C170.507 22.272 172.139 22.48 173.579 22.896C175.051 23.28 176.203 23.952 177.035 24.912C177.899 25.84 178.331 27.12 178.331 28.752ZM174.059 29.28C174.059 28.064 173.611 27.184 172.715 26.64C171.851 26.064 170.427 25.776 168.443 25.776H161.867V32.832H167.674C171.931 32.832 174.059 31.648 174.059 29.28ZM174.779 40.464C174.779 38.992 174.219 37.936 173.099 37.296C171.979 36.656 170.331 36.336 168.155 36.336H161.867V44.592H168.251C170.363 44.592 171.979 44.288 173.099 43.68C174.219 43.04 174.779 41.968 174.779 40.464ZM189.283 37.968C189.283 38.352 189.267 38.928 189.235 39.696C189.203 40.464 189.155 41.232 189.091 42C189.059 42.768 189.027 43.376 188.995 43.824L202.771 22.272H207.955V48H204.019V32.832C204.019 32.32 204.019 31.648 204.019 30.816C204.051 29.984 204.083 29.168 204.115 28.368C204.147 27.536 204.179 26.912 204.211 26.496L190.531 48H185.299V22.272H189.283V37.968ZM226.463 48.48C224.191 48.48 222.159 48.016 220.367 47.088C218.607 46.16 217.215 44.72 216.191 42.768C215.199 40.816 214.703 38.32 214.703 35.28C214.703 32.112 215.231 29.536 216.287 27.552C217.343 25.568 218.767 24.112 220.559 23.184C222.383 22.256 224.447 21.792 226.751 21.792C228.063 21.792 229.327 21.936 230.543 22.224C231.759 22.48 232.751 22.8 233.519 23.184L232.223 26.688C231.455 26.4 230.559 26.128 229.535 25.872C228.511 25.616 227.551 25.488 226.655 25.488C221.599 25.488 219.071 28.736 219.071 35.232C219.071 38.336 219.679 40.72 220.895 42.384C222.143 44.016 223.983 44.832 226.415 44.832C227.823 44.832 229.055 44.688 230.111 44.4C231.199 44.112 232.191 43.76 233.087 43.344V47.088C232.223 47.536 231.263 47.872 230.207 48.096C229.183 48.352 227.935 48.48 226.463 48.48Z" fill="white"/>
</svg>
