<svg width="147" height="137" viewBox="0 0 147 137" fill="none" xmlns="http://www.w3.org/2000/svg">
<path d="M81.2211 108.545C81.2211 90.4428 96.8669 75.7692 116.166 75.7692C120.229 75.7692 122.857 76.2241 125.613 76.9878C127.468 77.7255 128.178 76.2722 128.371 75.5943C129.634 71.1713 130.342 66.6607 130.342 62.1164C130.342 61.8121 130.161 23.1262 130.161 22.6484C130.161 18.8332 127.83 18.8422 126.789 18.8471C119.323 18.8804 111.712 18.8835 103.706 16.719C87.0732 12.221 72.2858 0 66.6643 0C61.2191 0 50.2396 12.2214 33.606 16.719C24.2264 19.2553 15.2316 18.7846 6.81679 18.4187C5.82802 18.376 4.25405 18.1301 3.75463 21.3443C3.62858 22.1543 2.98682 61.6813 2.98682 62.1164C2.98682 100.73 53.921 137 66.6633 137C70.7406 137 77.3102 133.929 86.152 127.757C87.3301 126.803 86.6989 126.17 86.3504 125.637C83.0999 120.66 81.2211 114.81 81.2211 108.545Z" fill="#5F2EEA"/>
<path d="M116.386 125.257C115.209 126.447 113.108 126.632 111.716 125.666L89.5862 110.318C88.1953 109.353 87.9082 107.503 88.9487 106.207L91.7885 102.671C92.829 101.375 94.8219 101.099 96.2171 102.06L110.408 111.827C111.803 112.787 113.907 112.599 115.084 111.409L135.113 91.7452C136.29 90.5548 138.289 90.4856 139.556 91.5914L143.01 94.6069C144.276 95.7127 144.35 97.5909 143.174 98.7808L116.386 125.257Z" fill="#5F2EEA"/>
</svg>
