<svg width="47" height="47" viewBox="0 0 47 47" fill="none" xmlns="http://www.w3.org/2000/svg">
<path d="M23.1651 22.6401C26.2754 22.6401 28.9684 21.5245 31.1693 19.3236C33.3696 17.123 34.4855 14.4304 34.4855 11.3197C34.4855 8.21007 33.37 5.51713 31.169 3.3158C28.968 1.11555 26.2751 0 23.1651 0C20.0544 0 17.3618 1.11555 15.1612 3.31616C12.9606 5.51677 11.8447 8.20971 11.8447 11.3197C11.8447 14.4304 12.9606 17.1233 15.1612 19.3239C17.3625 21.5242 20.0555 22.6401 23.1651 22.6401ZM17.109 5.26361C18.7976 3.57505 20.7784 2.75426 23.1651 2.75426C25.5514 2.75426 27.5326 3.57505 29.2215 5.26361C30.9101 6.95253 31.7312 8.93368 31.7312 11.3197C31.7312 13.7064 30.9101 15.6872 29.2215 17.3761C27.5326 19.065 25.5514 19.8858 23.1651 19.8858C20.7791 19.8858 18.7983 19.0647 17.109 17.3761C15.4201 15.6876 14.5989 13.7064 14.5989 11.3197C14.5989 8.93368 15.4201 6.95253 17.109 5.26361Z" fill="black"/>
<path d="M23.1651 22.6401C26.2754 22.6401 28.9684 21.5245 31.1693 19.3236C33.3696 17.123 34.4855 14.4304 34.4855 11.3197C34.4855 8.21007 33.37 5.51713 31.169 3.3158C28.968 1.11555 26.2751 0 23.1651 0C20.0544 0 17.3618 1.11555 15.1612 3.31616C12.9606 5.51677 11.8447 8.20971 11.8447 11.3197C11.8447 14.4304 12.9606 17.1233 15.1612 19.3239C17.3625 21.5242 20.0555 22.6401 23.1651 22.6401ZM17.109 5.26361C18.7976 3.57505 20.7784 2.75426 23.1651 2.75426C25.5514 2.75426 27.5326 3.57505 29.2215 5.26361C30.9101 6.95253 31.7312 8.93368 31.7312 11.3197C31.7312 13.7064 30.9101 15.6872 29.2215 17.3761C27.5326 19.065 25.5514 19.8858 23.1651 19.8858C20.7791 19.8858 18.7983 19.0647 17.109 17.3761C15.4201 15.6876 14.5989 13.7064 14.5989 11.3197C14.5989 8.93368 15.4201 6.95253 17.109 5.26361Z" fill="url(#paint0_linear)"/>
<path d="M42.9728 36.1407C42.9093 35.2248 42.7809 34.2258 42.592 33.1709C42.4012 32.1081 42.1556 31.1033 41.8615 30.185C41.5574 29.2358 41.1447 28.2985 40.6337 27.4002C40.1041 26.4679 39.4816 25.6561 38.7831 24.9881C38.0527 24.2892 37.1584 23.7273 36.1242 23.3174C35.0937 22.9097 33.9516 22.7032 32.7299 22.7032C32.2501 22.7032 31.7861 22.9001 30.89 23.4835C30.3385 23.8431 29.6934 24.2591 28.9734 24.7191C28.3577 25.1114 27.5236 25.479 26.4934 25.8117C25.4883 26.137 24.4678 26.3019 23.4602 26.3019C22.4533 26.3019 21.4328 26.137 20.427 25.8117C19.3978 25.4793 18.5634 25.1118 17.9488 24.7195C17.2356 24.2637 16.5901 23.8478 16.0304 23.4831C15.135 22.8997 14.671 22.7028 14.1912 22.7028C12.9692 22.7028 11.8275 22.9097 10.7972 23.3178C9.76382 23.7269 8.86916 24.2888 8.13801 24.9884C7.43949 25.6568 6.81699 26.4683 6.28773 27.4002C5.77747 28.2985 5.36438 29.2355 5.0603 30.1853C4.76662 31.1037 4.521 32.1081 4.33023 33.1709C4.1409 34.2244 4.01289 35.2238 3.94942 36.1417C3.88702 37.0393 3.85547 37.9734 3.85547 38.9171C3.85547 41.3706 4.63538 43.3567 6.17334 44.8215C7.69229 46.267 9.70178 46.9999 12.1462 46.9999H34.777C37.2208 46.9999 39.2303 46.267 40.7496 44.8215C42.2879 43.3578 43.0678 41.3709 43.0678 38.9168C43.0674 37.9698 43.0355 37.0357 42.9728 36.1407ZM38.8505 42.826C37.8468 43.7813 36.5144 44.2457 34.7767 44.2457H12.1462C10.4082 44.2457 9.0757 43.7813 8.07239 42.8264C7.08808 41.8894 6.60973 40.6104 6.60973 38.9171C6.60973 38.0365 6.63878 37.1669 6.69687 36.3321C6.75352 35.5131 6.86935 34.6135 7.04111 33.6575C7.21072 32.7133 7.42658 31.8273 7.68333 31.0251C7.92967 30.256 8.26566 29.4944 8.68233 28.7607C9.08 28.0615 9.53755 27.4616 10.0424 26.9782C10.5147 26.526 11.1099 26.156 11.8113 25.8784C12.46 25.6217 13.189 25.4811 13.9804 25.46C14.0768 25.5112 14.2486 25.6091 14.5269 25.7906C15.0931 26.1596 15.7457 26.5805 16.4671 27.0413C17.2804 27.5598 18.3282 28.0281 19.58 28.4322C20.8598 28.846 22.165 29.0562 23.4606 29.0562C24.7561 29.0562 26.0617 28.846 27.3408 28.4326C28.5937 28.0278 29.6411 27.5598 30.4554 27.0406C31.1937 26.5687 31.8281 26.1599 32.3943 25.7906C32.6725 25.6095 32.8443 25.5112 32.9407 25.46C33.7325 25.4811 34.4615 25.6217 35.1105 25.8784C35.8115 26.156 36.4068 26.5264 36.879 26.9782C37.3839 27.4612 37.8415 28.0611 38.2391 28.7611C38.6562 29.4944 38.9925 30.2563 39.2385 31.0248C39.4956 31.828 39.7118 32.7137 39.8811 33.6571C40.0525 34.6149 40.1687 35.5149 40.2253 36.3325V36.3332C40.2838 37.1648 40.3132 38.034 40.3135 38.9171C40.3132 40.6107 39.8348 41.8894 38.8505 42.826Z" fill="black"/>
<path d="M42.9728 36.1407C42.9093 35.2248 42.7809 34.2258 42.592 33.1709C42.4012 32.1081 42.1556 31.1033 41.8615 30.185C41.5574 29.2358 41.1447 28.2985 40.6337 27.4002C40.1041 26.4679 39.4816 25.6561 38.7831 24.9881C38.0527 24.2892 37.1584 23.7273 36.1242 23.3174C35.0937 22.9097 33.9516 22.7032 32.7299 22.7032C32.2501 22.7032 31.7861 22.9001 30.89 23.4835C30.3385 23.8431 29.6934 24.2591 28.9734 24.7191C28.3577 25.1114 27.5236 25.479 26.4934 25.8117C25.4883 26.137 24.4678 26.3019 23.4602 26.3019C22.4533 26.3019 21.4328 26.137 20.427 25.8117C19.3978 25.4793 18.5634 25.1118 17.9488 24.7195C17.2356 24.2637 16.5901 23.8478 16.0304 23.4831C15.135 22.8997 14.671 22.7028 14.1912 22.7028C12.9692 22.7028 11.8275 22.9097 10.7972 23.3178C9.76382 23.7269 8.86916 24.2888 8.13801 24.9884C7.43949 25.6568 6.81699 26.4683 6.28773 27.4002C5.77747 28.2985 5.36438 29.2355 5.0603 30.1853C4.76662 31.1037 4.521 32.1081 4.33023 33.1709C4.1409 34.2244 4.01289 35.2238 3.94942 36.1417C3.88702 37.0393 3.85547 37.9734 3.85547 38.9171C3.85547 41.3706 4.63538 43.3567 6.17334 44.8215C7.69229 46.267 9.70178 46.9999 12.1462 46.9999H34.777C37.2208 46.9999 39.2303 46.267 40.7496 44.8215C42.2879 43.3578 43.0678 41.3709 43.0678 38.9168C43.0674 37.9698 43.0355 37.0357 42.9728 36.1407ZM38.8505 42.826C37.8468 43.7813 36.5144 44.2457 34.7767 44.2457H12.1462C10.4082 44.2457 9.0757 43.7813 8.07239 42.8264C7.08808 41.8894 6.60973 40.6104 6.60973 38.9171C6.60973 38.0365 6.63878 37.1669 6.69687 36.3321C6.75352 35.5131 6.86935 34.6135 7.04111 33.6575C7.21072 32.7133 7.42658 31.8273 7.68333 31.0251C7.92967 30.256 8.26566 29.4944 8.68233 28.7607C9.08 28.0615 9.53755 27.4616 10.0424 26.9782C10.5147 26.526 11.1099 26.156 11.8113 25.8784C12.46 25.6217 13.189 25.4811 13.9804 25.46C14.0768 25.5112 14.2486 25.6091 14.5269 25.7906C15.0931 26.1596 15.7457 26.5805 16.4671 27.0413C17.2804 27.5598 18.3282 28.0281 19.58 28.4322C20.8598 28.846 22.165 29.0562 23.4606 29.0562C24.7561 29.0562 26.0617 28.846 27.3408 28.4326C28.5937 28.0278 29.6411 27.5598 30.4554 27.0406C31.1937 26.5687 31.8281 26.1599 32.3943 25.7906C32.6725 25.6095 32.8443 25.5112 32.9407 25.46C33.7325 25.4811 34.4615 25.6217 35.1105 25.8784C35.8115 26.156 36.4068 26.5264 36.879 26.9782C37.3839 27.4612 37.8415 28.0611 38.2391 28.7611C38.6562 29.4944 38.9925 30.2563 39.2385 31.0248C39.4956 31.828 39.7118 32.7137 39.8811 33.6571C40.0525 34.6149 40.1687 35.5149 40.2253 36.3325V36.3332C40.2838 37.1648 40.3132 38.034 40.3135 38.9171C40.3132 40.6107 39.8348 41.8894 38.8505 42.826Z" fill="url(#paint1_linear)"/>
<defs>
<linearGradient id="paint0_linear" x1="23.1651" y1="0" x2="23.1651" y2="22.6401" gradientUnits="userSpaceOnUse">
<stop stop-color="#6A39C2"/>
<stop offset="1" stop-color="#0057FF"/>
</linearGradient>
<linearGradient id="paint1_linear" x1="23.4616" y1="22.7028" x2="23.4616" y2="46.9999" gradientUnits="userSpaceOnUse">
<stop stop-color="#6A39C2"/>
<stop offset="1" stop-color="#0057FF"/>
</linearGradient>
</defs>
</svg>
