<svg width="199" height="185" viewBox="0 0 199 185" fill="none" xmlns="http://www.w3.org/2000/svg">
<g clip-path="url(#clip0)">
<path d="M102.411 125.032V124.311C98.4838 124.271 94.7272 124.071 91.0986 123.791C89.1349 128.555 86.3601 133 82.9022 136.964C89.4337 137.965 96.0506 138.525 102.667 138.605L102.411 125.032Z" fill="#5F2EEA"/>
<path d="M85.1221 98.5259C81.9631 84.352 70.8212 72.8207 56.0079 68.4564C51.9098 67.2953 47.6835 66.6947 43.4146 66.6947C32.8276 66.7347 22.5821 70.4184 14.77 77.0649C-2.60459 91.8794 -3.84258 117.144 11.9525 133.44C27.7476 149.736 54.6846 150.897 72.0591 136.083C80.9385 128.515 86.0186 117.825 85.9759 106.574C85.9759 103.891 85.6771 101.169 85.1221 98.5259ZM43.4146 101.209C50.6291 101.209 56.9898 105.693 58.9535 112.219C61.3441 120.267 56.3921 128.595 47.7689 130.878V134.401C47.7689 136.603 45.8479 138.405 43.4999 138.405C41.152 138.405 39.231 136.603 39.231 134.401V130.918C32.1873 129.116 27.3207 123.15 27.278 116.303C27.278 114.101 29.199 112.299 31.5469 112.299C33.8948 112.299 35.8159 114.101 35.8159 116.303C35.8159 120.227 39.231 123.39 43.4146 123.39C47.5981 123.39 50.9706 120.187 50.9706 116.263C50.9706 112.34 47.5554 109.176 43.3719 109.176C36.072 109.176 29.7113 104.572 27.8329 97.9654C25.5704 89.9575 30.6931 81.6294 39.2737 79.4672V77.7456C39.2737 75.5434 41.1947 73.7416 43.5426 73.7416C45.8905 73.7416 47.8116 75.5434 47.8116 77.7456V79.5473C54.7699 81.3891 59.5512 87.355 59.5512 94.1216C59.5512 96.3238 57.6301 98.1256 55.2822 98.1256C52.9343 98.1256 51.0133 96.3238 51.0133 94.1216C51.0133 90.1978 47.5981 86.9946 43.4146 86.9946C39.231 86.9946 35.8585 90.1577 35.8159 94.1216C35.8159 98.0455 39.231 101.209 43.4146 101.209Z" fill="#5F2EEA"/>
<path d="M102.283 116.263L102.027 102.089C99.3803 102.049 96.7762 101.969 94.3003 101.809C94.4283 103.411 94.5137 104.972 94.5137 106.534C94.5137 109.657 94.1722 112.82 93.5319 115.903C96.3494 116.143 99.2949 116.263 102.283 116.263Z" fill="#5F2EEA"/>
<path d="M149.028 49.9983C146.082 51.4397 142.966 52.6008 139.764 53.4817C130.159 56.2044 117.566 57.6858 104.418 57.6858C91.8243 57.6858 79.8286 56.3245 70.565 53.802C67.3633 53.0012 64.2896 51.8801 61.3441 50.4788L61.6429 61.7698C66.4668 63.4515 70.9492 65.8539 75.0047 68.8568C75.1327 68.8968 75.2181 68.8968 75.3462 68.9369C83.5425 70.8988 93.8734 71.9398 104.418 71.9398C116.627 71.9398 128.623 70.4984 137.288 68.056C146.552 65.4134 148.601 62.6507 148.601 62.1302C148.601 61.5696 148.558 61.0491 149.028 60.4886V49.9983Z" fill="#5F2EEA"/>
<path d="M137.246 34.1027C128.58 31.6202 116.584 30.2189 104.375 30.2189C92.0804 30.2189 80.5543 31.6202 71.931 34.1027C62.9236 36.6652 60.9599 39.1877 60.9172 39.9885C60.9172 39.9885 60.9599 39.9885 60.9599 40.0685C61.1733 40.9494 63.7347 43.6721 72.9129 46.1545C81.4081 48.4768 92.5927 49.758 104.375 49.758C116.584 49.758 128.537 48.3567 137.203 45.9143C146.467 43.3117 148.558 40.549 148.558 39.9885C148.558 39.4679 146.509 36.7453 137.246 34.1027Z" fill="#5F2EEA"/>
<path d="M198.036 144.891V132.88C195.175 134.241 192.187 135.402 189.071 136.283C179.508 139.006 167 140.487 153.809 140.487C142.112 140.487 130.714 139.246 121.75 137.044C118.078 136.163 114.535 134.962 111.12 133.4L111.333 145.012C111.333 145.052 111.333 145.052 111.333 145.092C111.333 145.692 113.212 148.375 122.219 150.977C130.757 153.42 142.283 154.781 154.62 154.781C166.915 154.781 178.484 153.38 187.107 150.857C196.115 148.215 198.078 145.452 198.078 144.891H198.036Z" fill="#5F2EEA"/>
<path d="M148.943 72.3402C145.997 73.7416 142.923 74.9027 139.722 75.7836C130.117 78.5063 117.523 79.9877 104.332 79.9877C97.8435 79.9877 91.3974 79.5873 84.994 78.8266C88.4519 83.311 91.0132 88.3559 92.6354 93.7212C96.3067 93.9614 100.277 94.1216 104.375 94.1216C104.503 94.1216 104.674 94.1216 104.802 94.1216C111.803 86.9145 130.629 83.311 148.943 82.8305V72.3402Z" fill="#5F2EEA"/>
<path d="M188.772 114.141C179.252 116.784 166.872 118.225 153.895 118.225C141.301 118.225 129.306 116.864 120.042 114.341C116.84 113.501 113.724 112.38 110.736 110.978L110.907 120.187L110.949 123.55C114.279 127.434 130.202 132.439 153.852 132.439C166.189 132.439 177.843 131.078 186.595 128.595C195.816 125.953 197.822 123.23 197.822 122.67C197.822 122.229 198.078 121.749 198.078 121.348H198.121V110.738C195.133 112.139 192.016 113.34 188.772 114.141Z" fill="#5F2EEA"/>
<path d="M186.766 94.7222C178.057 92.2398 166.104 90.9185 153.895 90.9185H153.169C141.814 90.9185 131.013 92.1196 122.731 94.3218C113.895 96.6441 110.864 99.2867 110.48 100.368C110.437 100.448 110.437 100.488 110.437 100.528C110.437 100.528 110.437 100.528 110.522 100.688C110.778 101.529 113.297 104.252 122.475 106.774C130.97 109.056 142.155 110.338 153.937 110.338C166.104 110.338 177.63 109.016 186.381 106.574C195.858 103.931 197.993 101.169 198.036 100.568V100.528C197.993 99.9273 195.858 97.2847 186.766 94.7222Z" fill="#5F2EEA"/>
</g>
<defs>
<clipPath id="clip0">
<rect width="197.245" height="185" fill="white" transform="translate(0.876282)"/>
</clipPath>
</defs>
</svg>
