<svg width="199" height="141" viewBox="0 0 199 141" fill="none" xmlns="http://www.w3.org/2000/svg">
<path d="M15.8514 31.9138H46.3233C47.919 31.9138 49.2127 30.7008 49.2127 29.2039C49.2127 27.7069 47.919 26.4939 46.3233 26.4939H15.8514C14.2557 26.4939 12.962 27.7069 12.962 29.2039C12.962 30.7008 14.2553 31.9138 15.8514 31.9138Z" fill="#5F2EEA"/>
<path d="M45.2786 44.9602H33.2413C31.6456 44.9602 30.3519 46.1732 30.3519 47.6702C30.3519 49.1671 31.6456 50.3801 33.2413 50.3801H45.2786C46.8742 50.3801 48.1679 49.1671 48.1679 47.6702C48.1679 46.1732 46.8742 44.9602 45.2786 44.9602Z" fill="#5F2EEA"/>
<path d="M3.76555 63.7529H33.2413C34.837 63.7529 36.1306 62.54 36.1306 61.043C36.1306 59.546 34.837 58.333 33.2413 58.333H3.76555C2.16987 58.333 0.876221 59.546 0.876221 61.043C0.876221 62.54 2.16987 63.7529 3.76555 63.7529Z" fill="#5F2EEA"/>
<path d="M49.2127 111.796C49.2127 110.299 47.919 109.086 46.3233 109.086H15.8514C14.2557 109.086 12.962 110.299 12.962 111.796C12.962 113.293 14.2557 114.506 15.8514 114.506H46.3233C47.919 114.506 49.2127 113.293 49.2127 111.796Z" fill="#5F2EEA"/>
<path d="M45.2786 90.6199H33.2413C31.6456 90.6199 30.3519 91.8329 30.3519 93.3298C30.3519 94.8268 31.6456 96.0398 33.2413 96.0398H45.2786C46.8742 96.0398 48.1679 94.8268 48.1679 93.3298C48.1679 91.8329 46.8742 90.6199 45.2786 90.6199Z" fill="#5F2EEA"/>
<path d="M36.1306 79.957C36.1306 78.46 34.837 77.2471 33.2413 77.2471H3.76555C2.16987 77.2471 0.876221 78.46 0.876221 79.957C0.876221 81.454 2.16987 82.667 3.76555 82.667H33.2413C34.837 82.667 36.1306 81.454 36.1306 79.957Z" fill="#5F2EEA"/>
<path d="M123.973 37.9191C125.569 37.9191 126.862 36.7061 126.862 35.2091V31.0726C126.862 29.5756 125.569 28.3627 123.973 28.3627C122.377 28.3627 121.083 29.5756 121.083 31.0726V35.2091C121.083 36.7061 122.377 37.9191 123.973 37.9191Z" fill="#5F2EEA"/>
<path d="M155.74 40.7041C154.611 39.6462 152.782 39.6462 151.654 40.7041L148.535 43.6291C147.407 44.6878 147.407 46.4033 148.535 47.4617C149.665 48.52 151.493 48.5196 152.622 47.4617L155.74 44.5367C156.868 43.4784 156.868 41.7628 155.74 40.7041Z" fill="#5F2EEA"/>
<path d="M161.599 67.79C160.003 67.79 158.71 69.003 158.71 70.5C158.71 71.997 160.003 73.21 161.599 73.21H166.009C167.605 73.21 168.899 71.997 168.899 70.5C168.899 69.003 167.605 67.79 166.009 67.79H161.599Z" fill="#5F2EEA"/>
<path d="M152.622 93.538C151.493 92.48 149.664 92.48 148.535 93.538C147.407 94.5967 147.407 96.3123 148.535 97.3706L151.654 100.296C152.783 101.354 154.612 101.354 155.74 100.296C156.869 99.2369 156.869 97.5213 155.74 96.4629L152.622 93.538Z" fill="#5F2EEA"/>
<path d="M121.083 105.791V109.927C121.083 111.424 122.377 112.637 123.973 112.637C125.569 112.637 126.862 111.424 126.862 109.927V105.791C126.862 104.294 125.569 103.081 123.973 103.081C122.377 103.081 121.083 104.294 121.083 105.791Z" fill="#5F2EEA"/>
<path d="M95.3232 93.538L92.2047 96.4629C91.0763 97.5216 91.0763 99.2372 92.2047 100.296C93.3334 101.354 95.1626 101.354 96.2906 100.296L99.4091 97.3706C100.537 96.3119 100.537 94.5963 99.4091 93.538C98.2811 92.48 96.4516 92.48 95.3232 93.538Z" fill="#5F2EEA"/>
<path d="M81.9357 67.79C80.34 67.79 79.0464 69.003 79.0464 70.5C79.0464 71.997 80.34 73.21 81.9357 73.21H86.346C87.9417 73.21 89.2353 71.997 89.2353 70.5C89.2353 69.003 87.9417 67.79 86.346 67.79H81.9357Z" fill="#5F2EEA"/>
<path d="M99.4095 43.6291L96.2909 40.7041C95.1626 39.6462 93.333 39.6462 92.205 40.7041C91.0767 41.7628 91.0767 43.4784 92.205 44.5367L95.3236 47.4617C96.4524 48.52 98.2815 48.5196 99.4095 47.4617C100.538 46.4033 100.538 44.6878 99.4095 43.6291Z" fill="#5F2EEA"/>
<path d="M139.51 70.5001C139.51 69.0031 138.216 67.7901 136.62 67.7901H126.862V47.6699C126.862 46.1729 125.569 44.96 123.973 44.96C122.377 44.96 121.083 46.1729 121.083 47.6699V70.5001C121.083 71.9971 122.377 73.21 123.973 73.21H136.62C138.216 73.21 139.51 71.9971 139.51 70.5001Z" fill="#5F2EEA"/>
<path d="M178.759 70.0526C180.352 69.9619 181.565 68.6774 181.468 67.1837C179.63 38.7461 154.375 16.4698 123.972 16.4698C92.2082 16.4698 66.3661 40.7077 66.3661 70.5003C66.3661 100.293 92.2082 124.53 123.972 124.53C152.43 124.53 176.712 104.975 180.936 78.585C181.173 77.105 180.086 75.7251 178.508 75.5029C176.934 75.2814 175.459 76.3 175.222 77.7807C171.427 101.489 149.601 119.111 123.972 119.111C95.3946 119.111 72.1447 97.3044 72.1447 70.5007C72.1447 43.697 95.3946 21.8901 123.972 21.8901C151.325 21.8901 174.046 41.9297 175.7 67.5125C175.796 69.0055 177.164 70.1394 178.759 70.0526Z" fill="#5F2EEA"/>
<path d="M123.972 0.954834C113.809 0.954834 103.852 2.93238 94.6868 6.63058H43.7079C42.1123 6.63058 40.8186 7.84356 40.8186 9.34054C40.8186 10.8375 42.1123 12.0505 43.7079 12.0505H83.8168C78.3937 15.3241 73.4013 19.2727 68.9995 23.8312C67.9286 24.9402 68.0187 26.6539 69.2014 27.6588C70.3845 28.6636 72.2109 28.5787 73.2827 27.4695C86.2276 14.0635 104.704 6.37476 123.972 6.37476C161.671 6.37476 192.342 35.1412 192.342 70.5C192.342 105.859 161.672 134.625 123.972 134.625C86.2731 134.625 55.6027 105.859 55.6027 70.5C55.6027 58.118 59.3738 46.1003 66.5078 35.7453C67.3738 34.4883 66.9893 32.811 65.6491 31.9987C64.3088 31.1868 62.5205 31.5467 61.6541 32.8041C53.9146 44.0371 49.8241 57.072 49.8241 70.5C49.8241 94.9858 63.3869 116.554 83.8353 128.95H43.7083C42.1126 128.95 40.819 130.163 40.819 131.66C40.819 133.156 42.1126 134.369 43.7083 134.369H94.6471C103.646 138.019 113.561 140.045 123.973 140.045C164.858 140.045 198.121 108.847 198.121 70.5C198.121 32.1526 164.858 0.954834 123.972 0.954834Z" fill="#5F2EEA"/>
</svg>
