<?xml version="1.0" standalone="no"?>
<svg xmlns:xlink="http://www.w3.org/1999/xlink" id="wave" style="transform:rotate(0deg); transition: 0.3s" viewBox="0 0 1440 320" version="1.1" xmlns="http://www.w3.org/2000/svg"><defs><linearGradient id="sw-gradient-0" x1="0" x2="0" y1="1" y2="0"><stop stop-color="rgba(243, 106, 62, 1)" offset="0%"/><stop stop-color="rgba(255, 179, 11, 1)" offset="100%"/></linearGradient></defs><path style="transform:translate(0, 0px); opacity:1" fill="url(#sw-gradient-0)" d="M0,96L60,122.7C120,149,240,203,360,192C480,181,600,107,720,69.3C840,32,960,32,1080,53.3C1200,75,1320,117,1440,128C1560,139,1680,117,1800,128C1920,139,2040,181,2160,165.3C2280,149,2400,75,2520,58.7C2640,43,2760,85,2880,112C3000,139,3120,149,3240,138.7C3360,128,3480,96,3600,74.7C3720,53,3840,43,3960,37.3C4080,32,4200,32,4320,42.7C4440,53,4560,75,4680,101.3C4800,128,4920,160,5040,160C5160,160,5280,128,5400,96C5520,64,5640,32,5760,53.3C5880,75,6000,149,6120,181.3C6240,213,6360,203,6480,192C6600,181,6720,171,6840,138.7C6960,107,7080,53,7200,64C7320,75,7440,149,7560,149.3C7680,149,7800,75,7920,58.7C8040,43,8160,85,8280,117.3C8400,149,8520,171,8580,181.3L8640,192L8640,320L8580,320C8520,320,8400,320,8280,320C8160,320,8040,320,7920,320C7800,320,7680,320,7560,320C7440,320,7320,320,7200,320C7080,320,6960,320,6840,320C6720,320,6600,320,6480,320C6360,320,6240,320,6120,320C6000,320,5880,320,5760,320C5640,320,5520,320,5400,320C5280,320,5160,320,5040,320C4920,320,4800,320,4680,320C4560,320,4440,320,4320,320C4200,320,4080,320,3960,320C3840,320,3720,320,3600,320C3480,320,3360,320,3240,320C3120,320,3000,320,2880,320C2760,320,2640,320,2520,320C2400,320,2280,320,2160,320C2040,320,1920,320,1800,320C1680,320,1560,320,1440,320C1320,320,1200,320,1080,320C960,320,840,320,720,320C600,320,480,320,360,320C240,320,120,320,60,320L0,320Z"/></svg>